<svg xmlns="http://www.w3.org/2000/svg" viewBox="0 0 679.13 138.9"><defs><style>.cls-1,.cls-3{fill:#5738f9;}.cls-2{fill:#16efff;}.cls-2,.cls-3,.cls-4{fill-rule:evenodd;}.cls-4{fill:#2921c1;}</style></defs><g id="Camada_2" data-name="Camada 2"><g id="Camada_1-2" data-name="Camada 1"><path d="M276.3,72.28,227.17,84.12c4.45,10.1,13.49,14.75,22.43,12.59,4.79-1.15,10.47-3.06,14-9.64a8.78,8.78,0,0,1,7.45-4.58h0a8.76,8.76,0,0,1,7.83,13.14c-5.29,9-14.15,15-25.31,17.65-20.68,5-41.33-6.64-46.87-29.66s7.49-42.93,28.46-48c19.51-4.7,40,6.34,46.12,28.45h0A6.79,6.79,0,0,1,276.3,72.28Zm-51.83-1.94,35.34-8.52C255.06,53,247,50.63,239.26,52.5,231.93,54.27,224.63,60.68,224.47,70.34Z"/><path d="M339.75,112.15H281.07V106a18,18,0,0,1,4.48-11.88L321.5,53.17H290.28A8.15,8.15,0,0,1,282.13,45h0a8.14,8.14,0,0,1,8.15-8.14h55.81v7.74a14.64,14.64,0,0,1-3.67,9.68L305.66,95.86h34.09A8.14,8.14,0,0,1,347.9,104h0A8.15,8.15,0,0,1,339.75,112.15Z"/><path d="M438.09,83.34h0a9.55,9.55,0,0,1,5.45,14.74c-7,10.14-19,16.2-32.3,16.2-22,0-40.24-16.13-40.24-39.79s18.23-39.95,40.24-39.95a39.05,39.05,0,0,1,31.93,16,9.56,9.56,0,0,1-5.08,14.83l-.22.06a9.61,9.61,0,0,1-10.81-4.33c-3.54-5.79-9.2-8.3-15.82-8.3-12.51,0-20.95,8.89-20.95,21.71S398.73,96,411.24,96c6.84,0,12.67-2.59,16.55-8.71A9.43,9.43,0,0,1,438.09,83.34Z"/><path d="M523.71,66.2V112H503.82V70.42c0-10.55-6-17.64-15.23-17.64-11.3,0-18.69,7.54-18.69,25.93V112H450V13.44A9.94,9.94,0,0,1,460,3.5h0a9.94,9.94,0,0,1,9.94,9.94V43.59c5.88-5.88,13.72-9.05,23.67-9.05C511.65,34.54,523.71,47.51,523.71,66.2Z"/><path d="M611.67,112H591.78v-5.87c-6.33,5.12-14.62,8.14-24.87,8.14-19.14,0-36.93-16.13-36.93-39.79s17.79-39.95,36.93-39.95c10.25,0,18.54,3,24.87,8.29v-6h0A19.88,19.88,0,0,1,611.67,56.7ZM591.78,74.49c0-13.87-10.7-22.61-21.4-22.61-12.06,0-21.1,8.74-21.1,22.61s9,22.45,21.1,22.45C581.08,96.94,591.78,88.35,591.78,74.49Z"/><path d="M678.62,100.9a9,9,0,0,1-5.56,11.52,33.56,33.56,0,0,1-11.34,1.86c-17.78,0-29.54-9.35-29.54-30V53.08H616.06V36.81h16.12V14.05h19.9V36.81h24.57V53.08H652.08V82.77c0,9,4.37,13,11,13a21.36,21.36,0,0,0,4.8-.67,9.06,9.06,0,0,1,10.74,5.83Z"/><circle class="cls-1" cx="362" cy="103.95" r="8.23"/><path class="cls-2" d="M55,118.47,39.71,133.81a3,3,0,0,0,2.11,5.09l60.55,0,2,0a69.14,69.14,0,0,0,29.05-6.35l.22-.1,1-.45A69.8,69.8,0,0,0,153.62,19.78l-1-1-.87-.87C139.23,5.79,123.08,0,104.33,0S69,6.47,56.5,18.55l-1.19,1-.33.32A69.76,69.76,0,0,0,55,118.47Z"/><path class="cls-3" d="M20.45,118.47,5.13,133.81a3,3,0,0,0,2.11,5.09l60.55,0,2,0a69.14,69.14,0,0,0,29.05-6.35l.22-.1,1-.45A69.8,69.8,0,0,0,119,19.78l-1-1-.88-.87C104.65,5.79,88.5,0,69.75,0S34.41,6.47,21.92,18.55l-1.19,1-.33.32A69.76,69.76,0,0,0,20.45,118.47Z"/><path class="cls-4" d="M119,19.78l-1-1-.88-.87a61.94,61.94,0,0,0-29.82-16A65,65,0,0,0,56.5,18.55l-1.19,1-.33.32A69.76,69.76,0,0,0,55,118.47L39.71,133.81a3,3,0,0,0,1.9,5.08H70.23a69.2,69.2,0,0,0,28.57-6.34l.22-.1,1-.45A69.8,69.8,0,0,0,119,19.78Z"/></g></g></svg>